<?xml version="1.0" standalone="no"?>
<!DOCTYPE svg PUBLIC "-//W3C//DTD SVG 20010904//EN"
 "http://www.w3.org/TR/2001/REC-SVG-20010904/DTD/svg10.dtd">
<svg version="1.0" xmlns="http://www.w3.org/2000/svg"
 width="64.000000pt" height="64.000000pt" viewBox="0 0 64.000000 64.000000"
 preserveAspectRatio="xMidYMid meet">
<metadata>
Created by potrace 1.16, written by Peter Selinger 2001-2019
</metadata>
<g transform="translate(0.000000,64.000000) scale(0.100000,-0.100000)"
fill="#000000" stroke="none">
<path d="M57 573 c-4 -3 -7 -20 -7 -37 0 -23 -6 -34 -22 -41 -23 -10 -23 -14
-26 -194 -1 -114 1 -188 8 -196 6 -7 53 -15 117 -19 60 -4 127 -11 151 -15 23
-5 61 -5 85 0 23 4 90 11 150 15 64 4 111 12 117 19 7 8 9 82 8 196 -3 179 -4
184 -25 194 -16 7 -23 20 -25 45 l-3 35 -75 -3 c-41 -2 -101 -7 -132 -12 -33
-5 -83 -5 -115 0 -93 13 -199 20 -206 13z m216 -40 l37 -6 0 -189 0 -190 -77
6 c-43 4 -95 9 -115 12 l-38 6 0 190 0 191 78 -7 c42 -4 94 -10 115 -13z m287
-172 l0 -189 -37 -6 c-21 -3 -73 -8 -115 -12 l-78 -6 0 190 0 191 58 6 c31 3
64 8 72 9 8 2 34 4 58 5 l42 1 0 -189z m-508 -53 c3 -136 5 -163 18 -164 178
-21 275 -24 390 -12 l125 14 3 162 c1 97 6 162 12 162 6 0 10 -68 10 -174 l0
-174 -67 -6 c-38 -4 -103 -11 -146 -16 -49 -6 -105 -6 -155 0 -42 5 -107 12
-144 16 l-68 6 0 174 c0 106 4 174 10 174 6 0 11 -65 12 -162z"/>
</g>
</svg>
